<?xml version="1.0" encoding="UTF-8" standalone="no"?>
<!DOCTYPE svg PUBLIC "-//W3C//DTD SVG 1.1//EN"
 "http://www.w3.org/Graphics/SVG/1.1/DTD/svg11.dtd">
<!-- Generated by graphviz version 2.40.1 (20161225.0304)
 -->
<!-- Title: dependencies Pages: 1 -->
<svg width="554pt" height="284pt"
 viewBox="0.00 0.00 554.00 284.00" xmlns="http://www.w3.org/2000/svg" xmlns:xlink="http://www.w3.org/1999/xlink">
<g id="graph0" class="graph" transform="scale(1 1) rotate(0) translate(4 280)">
<title>dependencies</title>
<polygon fill="#ffffff" stroke="transparent" points="-4,4 -4,-280 550,-280 550,4 -4,4"/>
<text text-anchor="start" x="252.0091" y="-42.4" font-family="sans-serif" font-weight="bold" font-size="14.00" fill="#000000">Legend</text>
<polygon fill="#ffffb3" stroke="transparent" points="39,-10 39,-30 59,-30 59,-10 39,-10"/>
<text text-anchor="start" x="62.629" y="-15.4" font-family="sans-serif" font-size="14.00" fill="#000000"> &#160;Declarations</text>
<polygon fill="#8dd3c7" stroke="transparent" points="152,-10 152,-30 172,-30 172,-10 152,-10"/>
<text text-anchor="start" x="175.7251" y="-15.4" font-family="sans-serif" font-size="14.00" fill="#000000"> &#160;Module</text>
<polygon fill="#80b1d3" stroke="transparent" points="238,-10 238,-30 258,-30 258,-10 238,-10"/>
<text text-anchor="start" x="261.7812" y="-15.4" font-family="sans-serif" font-size="14.00" fill="#000000"> &#160;Bootstrap</text>
<polygon fill="#fdb462" stroke="transparent" points="335,-10 335,-30 355,-30 355,-10 335,-10"/>
<text text-anchor="start" x="358.6732" y="-15.4" font-family="sans-serif" font-size="14.00" fill="#000000"> &#160;Providers</text>
<polygon fill="#fb8072" stroke="transparent" points="431,-10 431,-30 451,-30 451,-10 431,-10"/>
<text text-anchor="start" x="454.7258" y="-15.4" font-family="sans-serif" font-size="14.00" fill="#000000"> &#160;Exports</text>
<g id="clust1" class="cluster">
<title>cluster_MultiFunctionModule</title>
<polygon fill="none" stroke="#000000" stroke-dasharray="1,5" points="8,-70 8,-268 538,-268 538,-70 8,-70"/>
</g>
<g id="clust2" class="cluster">
<title>cluster_MultiFunctionModule_declarations</title>
<polygon fill="none" stroke="#000000" points="352,-78 352,-130 530,-130 530,-78 352,-78"/>
</g>
<g id="clust4" class="cluster">
<title>cluster_MultiFunctionModule_imports</title>
<polygon fill="none" stroke="#000000" points="186,-78 186,-130 344,-130 344,-78 186,-78"/>
</g>
<g id="clust5" class="cluster">
<title>cluster_MultiFunctionModule_exports</title>
<polygon fill="none" stroke="#000000" points="174,-208 174,-260 356,-260 356,-208 174,-208"/>
</g>
<g id="clust7" class="cluster">
<title>cluster_MultiFunctionModule_providers</title>
<polygon fill="none" stroke="#000000" points="16,-78 16,-130 178,-130 178,-78 16,-78"/>
</g>
<!-- MultiFunctionComponent -->
<g id="node1" class="node">
<title>MultiFunctionComponent</title>
<polygon fill="#ffffb3" stroke="#000000" points="522.2274,-122 359.7726,-122 359.7726,-86 522.2274,-86 522.2274,-122"/>
<text text-anchor="middle" x="441" y="-99.8" font-family="Times,serif" font-size="14.00" fill="#000000">MultiFunctionComponent</text>
</g>
<!-- MultiFunctionModule -->
<g id="node2" class="node">
<title>MultiFunctionModule</title>
<polygon fill="#8dd3c7" stroke="#000000" points="335.4453,-187 332.4453,-191 311.4453,-191 308.4453,-187 194.5547,-187 194.5547,-151 335.4453,-151 335.4453,-187"/>
<text text-anchor="middle" x="265" y="-164.8" font-family="Times,serif" font-size="14.00" fill="#000000">MultiFunctionModule</text>
</g>
<!-- MultiFunctionComponent&#45;&gt;MultiFunctionModule -->
<g id="edge1" class="edge">
<title>MultiFunctionComponent&#45;&gt;MultiFunctionModule</title>
<path fill="none" stroke="#000000" d="M441,-122.1061C441,-141.3391 441,-169 441,-169 441,-169 345.3186,-169 345.3186,-169"/>
<polygon fill="#000000" stroke="#000000" points="345.3187,-165.5001 335.3186,-169 345.3186,-172.5001 345.3187,-165.5001"/>
</g>
<!-- MultiFunctionComponent  -->
<g id="node4" class="node">
<title>MultiFunctionComponent </title>
<polygon fill="#fb8072" stroke="#000000" points="347.7274,-252 182.2726,-252 182.2726,-216 347.7274,-216 347.7274,-252"/>
<text text-anchor="middle" x="265" y="-229.8" font-family="Times,serif" font-size="14.00" fill="#000000">MultiFunctionComponent </text>
</g>
<!-- MultiFunctionModule&#45;&gt;MultiFunctionComponent  -->
<g id="edge3" class="edge">
<title>MultiFunctionModule&#45;&gt;MultiFunctionComponent </title>
<path fill="none" stroke="#000000" stroke-dasharray="5,2" d="M265,-187.1061C265,-187.1061 265,-205.991 265,-205.991"/>
<polygon fill="#000000" stroke="#000000" points="261.5001,-205.9909 265,-215.991 268.5001,-205.991 261.5001,-205.9909"/>
</g>
<!-- AutoCompleteModule -->
<g id="node3" class="node">
<title>AutoCompleteModule</title>
<polygon fill="#8dd3c7" stroke="#000000" points="335.9846,-122 332.9846,-126 311.9846,-126 308.9846,-122 194.0154,-122 194.0154,-86 335.9846,-86 335.9846,-122"/>
<text text-anchor="middle" x="265" y="-99.8" font-family="Times,serif" font-size="14.00" fill="#000000">AutoCompleteModule</text>
</g>
<!-- AutoCompleteModule&#45;&gt;MultiFunctionModule -->
<g id="edge2" class="edge">
<title>AutoCompleteModule&#45;&gt;MultiFunctionModule</title>
<path fill="none" stroke="#000000" d="M265,-122.1061C265,-122.1061 265,-140.991 265,-140.991"/>
<polygon fill="#000000" stroke="#000000" points="261.5001,-140.9909 265,-150.991 268.5001,-140.991 261.5001,-140.9909"/>
</g>
<!-- SimpleFunction -->
<g id="node5" class="node">
<title>SimpleFunction</title>
<ellipse fill="#fdb462" stroke="#000000" cx="97" cy="-104" rx="72.9722" ry="18"/>
<text text-anchor="middle" x="97" y="-99.8" font-family="Times,serif" font-size="14.00" fill="#000000">SimpleFunction</text>
</g>
<!-- SimpleFunction&#45;&gt;MultiFunctionModule -->
<g id="edge4" class="edge">
<title>SimpleFunction&#45;&gt;MultiFunctionModule</title>
<path fill="none" stroke="#000000" d="M97,-122.1061C97,-141.3391 97,-169 97,-169 97,-169 184.7263,-169 184.7263,-169"/>
<polygon fill="#000000" stroke="#000000" points="184.7263,-172.5001 194.7263,-169 184.7263,-165.5001 184.7263,-172.5001"/>
</g>
</g>
</svg>
