<?xml version="1.0" encoding="UTF-8" standalone="no"?>
<!DOCTYPE svg PUBLIC "-//W3C//DTD SVG 1.1//EN"
 "http://www.w3.org/Graphics/SVG/1.1/DTD/svg11.dtd">
<!-- Generated by graphviz version 2.40.1 (20161225.0304)
 -->
<!-- Title: dependencies Pages: 1 -->
<svg width="562pt" height="284pt"
 viewBox="0.00 0.00 562.00 284.00" xmlns="http://www.w3.org/2000/svg" xmlns:xlink="http://www.w3.org/1999/xlink">
<g id="graph0" class="graph" transform="scale(1 1) rotate(0) translate(4 280)">
<title>dependencies</title>
<polygon fill="#ffffff" stroke="transparent" points="-4,4 -4,-280 558,-280 558,4 -4,4"/>
<text text-anchor="start" x="256.0091" y="-42.4" font-family="sans-serif" font-weight="bold" font-size="14.00" fill="#000000">Legend</text>
<polygon fill="#ffffb3" stroke="transparent" points="43,-10 43,-30 63,-30 63,-10 43,-10"/>
<text text-anchor="start" x="66.629" y="-15.4" font-family="sans-serif" font-size="14.00" fill="#000000"> &#160;Declarations</text>
<polygon fill="#8dd3c7" stroke="transparent" points="156,-10 156,-30 176,-30 176,-10 156,-10"/>
<text text-anchor="start" x="179.7251" y="-15.4" font-family="sans-serif" font-size="14.00" fill="#000000"> &#160;Module</text>
<polygon fill="#80b1d3" stroke="transparent" points="242,-10 242,-30 262,-30 262,-10 242,-10"/>
<text text-anchor="start" x="265.7812" y="-15.4" font-family="sans-serif" font-size="14.00" fill="#000000"> &#160;Bootstrap</text>
<polygon fill="#fdb462" stroke="transparent" points="339,-10 339,-30 359,-30 359,-10 339,-10"/>
<text text-anchor="start" x="362.6732" y="-15.4" font-family="sans-serif" font-size="14.00" fill="#000000"> &#160;Providers</text>
<polygon fill="#fb8072" stroke="transparent" points="435,-10 435,-30 455,-30 455,-10 435,-10"/>
<text text-anchor="start" x="458.7258" y="-15.4" font-family="sans-serif" font-size="14.00" fill="#000000"> &#160;Exports</text>
<g id="clust1" class="cluster">
<title>cluster_SimpleFunctionModule</title>
<polygon fill="none" stroke="#000000" stroke-dasharray="1,5" points="8,-70 8,-268 546,-268 546,-70 8,-70"/>
</g>
<g id="clust2" class="cluster">
<title>cluster_SimpleFunctionModule_declarations</title>
<polygon fill="none" stroke="#000000" points="352,-78 352,-130 538,-130 538,-78 352,-78"/>
</g>
<g id="clust4" class="cluster">
<title>cluster_SimpleFunctionModule_imports</title>
<polygon fill="none" stroke="#000000" points="186,-78 186,-130 344,-130 344,-78 186,-78"/>
</g>
<g id="clust5" class="cluster">
<title>cluster_SimpleFunctionModule_exports</title>
<polygon fill="none" stroke="#000000" points="170,-208 170,-260 360,-260 360,-208 170,-208"/>
</g>
<g id="clust7" class="cluster">
<title>cluster_SimpleFunctionModule_providers</title>
<polygon fill="none" stroke="#000000" points="16,-78 16,-130 178,-130 178,-78 16,-78"/>
</g>
<!-- SimpleFunctionComponent -->
<g id="node1" class="node">
<title>SimpleFunctionComponent</title>
<polygon fill="#ffffb3" stroke="#000000" points="530.2799,-122 359.7201,-122 359.7201,-86 530.2799,-86 530.2799,-122"/>
<text text-anchor="middle" x="445" y="-99.8" font-family="Times,serif" font-size="14.00" fill="#000000">SimpleFunctionComponent</text>
</g>
<!-- SimpleFunctionModule -->
<g id="node2" class="node">
<title>SimpleFunctionModule</title>
<polygon fill="#8dd3c7" stroke="#000000" points="339.4972,-187 336.4972,-191 315.4972,-191 312.4972,-187 190.5028,-187 190.5028,-151 339.4972,-151 339.4972,-187"/>
<text text-anchor="middle" x="265" y="-164.8" font-family="Times,serif" font-size="14.00" fill="#000000">SimpleFunctionModule</text>
</g>
<!-- SimpleFunctionComponent&#45;&gt;SimpleFunctionModule -->
<g id="edge1" class="edge">
<title>SimpleFunctionComponent&#45;&gt;SimpleFunctionModule</title>
<path fill="none" stroke="#000000" d="M445,-122.1061C445,-141.3391 445,-169 445,-169 445,-169 349.5122,-169 349.5122,-169"/>
<polygon fill="#000000" stroke="#000000" points="349.5123,-165.5001 339.5122,-169 349.5122,-172.5001 349.5123,-165.5001"/>
</g>
<!-- SimpleFunctionComponent  -->
<g id="node4" class="node">
<title>SimpleFunctionComponent </title>
<polygon fill="#fb8072" stroke="#000000" points="352.28,-252 177.72,-252 177.72,-216 352.28,-216 352.28,-252"/>
<text text-anchor="middle" x="265" y="-229.8" font-family="Times,serif" font-size="14.00" fill="#000000">SimpleFunctionComponent </text>
</g>
<!-- SimpleFunctionModule&#45;&gt;SimpleFunctionComponent  -->
<g id="edge3" class="edge">
<title>SimpleFunctionModule&#45;&gt;SimpleFunctionComponent </title>
<path fill="none" stroke="#000000" stroke-dasharray="5,2" d="M265,-187.1061C265,-187.1061 265,-205.991 265,-205.991"/>
<polygon fill="#000000" stroke="#000000" points="261.5001,-205.9909 265,-215.991 268.5001,-205.991 261.5001,-205.9909"/>
</g>
<!-- AutoCompleteModule -->
<g id="node3" class="node">
<title>AutoCompleteModule</title>
<polygon fill="#8dd3c7" stroke="#000000" points="335.9846,-122 332.9846,-126 311.9846,-126 308.9846,-122 194.0154,-122 194.0154,-86 335.9846,-86 335.9846,-122"/>
<text text-anchor="middle" x="265" y="-99.8" font-family="Times,serif" font-size="14.00" fill="#000000">AutoCompleteModule</text>
</g>
<!-- AutoCompleteModule&#45;&gt;SimpleFunctionModule -->
<g id="edge2" class="edge">
<title>AutoCompleteModule&#45;&gt;SimpleFunctionModule</title>
<path fill="none" stroke="#000000" d="M265,-122.1061C265,-122.1061 265,-140.991 265,-140.991"/>
<polygon fill="#000000" stroke="#000000" points="261.5001,-140.9909 265,-150.991 268.5001,-140.991 261.5001,-140.9909"/>
</g>
<!-- SimpleFunction -->
<g id="node5" class="node">
<title>SimpleFunction</title>
<ellipse fill="#fdb462" stroke="#000000" cx="97" cy="-104" rx="72.9722" ry="18"/>
<text text-anchor="middle" x="97" y="-99.8" font-family="Times,serif" font-size="14.00" fill="#000000">SimpleFunction</text>
</g>
<!-- SimpleFunction&#45;&gt;SimpleFunctionModule -->
<g id="edge4" class="edge">
<title>SimpleFunction&#45;&gt;SimpleFunctionModule</title>
<path fill="none" stroke="#000000" d="M97,-122.1061C97,-141.3391 97,-169 97,-169 97,-169 180.3344,-169 180.3344,-169"/>
<polygon fill="#000000" stroke="#000000" points="180.3344,-172.5001 190.3344,-169 180.3344,-165.5001 180.3344,-172.5001"/>
</g>
</g>
</svg>
