<?xml version="1.0" encoding="UTF-8" standalone="no"?>
<!DOCTYPE svg PUBLIC "-//W3C//DTD SVG 1.1//EN"
 "http://www.w3.org/Graphics/SVG/1.1/DTD/svg11.dtd">
<!-- Generated by graphviz version 2.40.1 (20161225.0304)
 -->
<!-- Title: dependencies Pages: 1 -->
<svg width="542pt" height="284pt"
 viewBox="0.00 0.00 542.00 284.00" xmlns="http://www.w3.org/2000/svg" xmlns:xlink="http://www.w3.org/1999/xlink">
<g id="graph0" class="graph" transform="scale(1 1) rotate(0) translate(4 280)">
<title>dependencies</title>
<polygon fill="#ffffff" stroke="transparent" points="-4,4 -4,-280 538,-280 538,4 -4,4"/>
<text text-anchor="start" x="246.0091" y="-42.4" font-family="sans-serif" font-weight="bold" font-size="14.00" fill="#000000">Legend</text>
<polygon fill="#ffffb3" stroke="transparent" points="33,-10 33,-30 53,-30 53,-10 33,-10"/>
<text text-anchor="start" x="56.629" y="-15.4" font-family="sans-serif" font-size="14.00" fill="#000000"> &#160;Declarations</text>
<polygon fill="#8dd3c7" stroke="transparent" points="146,-10 146,-30 166,-30 166,-10 146,-10"/>
<text text-anchor="start" x="169.7251" y="-15.4" font-family="sans-serif" font-size="14.00" fill="#000000"> &#160;Module</text>
<polygon fill="#80b1d3" stroke="transparent" points="232,-10 232,-30 252,-30 252,-10 232,-10"/>
<text text-anchor="start" x="255.7812" y="-15.4" font-family="sans-serif" font-size="14.00" fill="#000000"> &#160;Bootstrap</text>
<polygon fill="#fdb462" stroke="transparent" points="329,-10 329,-30 349,-30 349,-10 329,-10"/>
<text text-anchor="start" x="352.6732" y="-15.4" font-family="sans-serif" font-size="14.00" fill="#000000"> &#160;Providers</text>
<polygon fill="#fb8072" stroke="transparent" points="425,-10 425,-30 445,-30 445,-10 425,-10"/>
<text text-anchor="start" x="448.7258" y="-15.4" font-family="sans-serif" font-size="14.00" fill="#000000"> &#160;Exports</text>
<g id="clust1" class="cluster">
<title>cluster_SimpleServiceModule</title>
<polygon fill="none" stroke="#000000" stroke-dasharray="1,5" points="8,-70 8,-268 526,-268 526,-70 8,-70"/>
</g>
<g id="clust2" class="cluster">
<title>cluster_SimpleServiceModule_declarations</title>
<polygon fill="none" stroke="#000000" points="340,-78 340,-130 518,-130 518,-78 340,-78"/>
</g>
<g id="clust4" class="cluster">
<title>cluster_SimpleServiceModule_imports</title>
<polygon fill="none" stroke="#000000" points="174,-78 174,-130 332,-130 332,-78 174,-78"/>
</g>
<g id="clust5" class="cluster">
<title>cluster_SimpleServiceModule_exports</title>
<polygon fill="none" stroke="#000000" points="162,-208 162,-260 344,-260 344,-208 162,-208"/>
</g>
<g id="clust7" class="cluster">
<title>cluster_SimpleServiceModule_providers</title>
<polygon fill="none" stroke="#000000" points="16,-78 16,-130 166,-130 166,-78 16,-78"/>
</g>
<!-- SimpleServiceComponent -->
<g id="node1" class="node">
<title>SimpleServiceComponent</title>
<polygon fill="#ffffb3" stroke="#000000" points="510.479,-122 347.521,-122 347.521,-86 510.479,-86 510.479,-122"/>
<text text-anchor="middle" x="429" y="-99.8" font-family="Times,serif" font-size="14.00" fill="#000000">SimpleServiceComponent</text>
</g>
<!-- SimpleServiceModule -->
<g id="node2" class="node">
<title>SimpleServiceModule</title>
<polygon fill="#8dd3c7" stroke="#000000" points="323.6965,-187 320.6965,-191 299.6965,-191 296.6965,-187 182.3035,-187 182.3035,-151 323.6965,-151 323.6965,-187"/>
<text text-anchor="middle" x="253" y="-164.8" font-family="Times,serif" font-size="14.00" fill="#000000">SimpleServiceModule</text>
</g>
<!-- SimpleServiceComponent&#45;&gt;SimpleServiceModule -->
<g id="edge1" class="edge">
<title>SimpleServiceComponent&#45;&gt;SimpleServiceModule</title>
<path fill="none" stroke="#000000" d="M429,-122.1061C429,-141.3391 429,-169 429,-169 429,-169 333.8252,-169 333.8252,-169"/>
<polygon fill="#000000" stroke="#000000" points="333.8252,-165.5001 323.8252,-169 333.8251,-172.5001 333.8252,-165.5001"/>
</g>
<!-- SimpleServiceComponent  -->
<g id="node4" class="node">
<title>SimpleServiceComponent </title>
<polygon fill="#fb8072" stroke="#000000" points="336.4797,-252 169.5203,-252 169.5203,-216 336.4797,-216 336.4797,-252"/>
<text text-anchor="middle" x="253" y="-229.8" font-family="Times,serif" font-size="14.00" fill="#000000">SimpleServiceComponent </text>
</g>
<!-- SimpleServiceModule&#45;&gt;SimpleServiceComponent  -->
<g id="edge3" class="edge">
<title>SimpleServiceModule&#45;&gt;SimpleServiceComponent </title>
<path fill="none" stroke="#000000" stroke-dasharray="5,2" d="M253,-187.1061C253,-187.1061 253,-205.991 253,-205.991"/>
<polygon fill="#000000" stroke="#000000" points="249.5001,-205.9909 253,-215.991 256.5001,-205.991 249.5001,-205.9909"/>
</g>
<!-- AutoCompleteModule -->
<g id="node3" class="node">
<title>AutoCompleteModule</title>
<polygon fill="#8dd3c7" stroke="#000000" points="323.9846,-122 320.9846,-126 299.9846,-126 296.9846,-122 182.0154,-122 182.0154,-86 323.9846,-86 323.9846,-122"/>
<text text-anchor="middle" x="253" y="-99.8" font-family="Times,serif" font-size="14.00" fill="#000000">AutoCompleteModule</text>
</g>
<!-- AutoCompleteModule&#45;&gt;SimpleServiceModule -->
<g id="edge2" class="edge">
<title>AutoCompleteModule&#45;&gt;SimpleServiceModule</title>
<path fill="none" stroke="#000000" d="M253,-122.1061C253,-122.1061 253,-140.991 253,-140.991"/>
<polygon fill="#000000" stroke="#000000" points="249.5001,-140.9909 253,-150.991 256.5001,-140.991 249.5001,-140.9909"/>
</g>
<!-- SimpleService -->
<g id="node5" class="node">
<title>SimpleService</title>
<ellipse fill="#fdb462" stroke="#000000" cx="91" cy="-104" rx="67.21" ry="18"/>
<text text-anchor="middle" x="91" y="-99.8" font-family="Times,serif" font-size="14.00" fill="#000000">SimpleService</text>
</g>
<!-- SimpleService&#45;&gt;SimpleServiceModule -->
<g id="edge4" class="edge">
<title>SimpleService&#45;&gt;SimpleServiceModule</title>
<path fill="none" stroke="#000000" d="M91,-122.1061C91,-141.3391 91,-169 91,-169 91,-169 171.9444,-169 171.9444,-169"/>
<polygon fill="#000000" stroke="#000000" points="171.9445,-172.5001 181.9444,-169 171.9444,-165.5001 171.9445,-172.5001"/>
</g>
</g>
</svg>
