<?xml version="1.0" encoding="UTF-8" standalone="no"?>
<!DOCTYPE svg PUBLIC "-//W3C//DTD SVG 1.1//EN"
 "http://www.w3.org/Graphics/SVG/1.1/DTD/svg11.dtd">
<!-- Generated by graphviz version 2.40.1 (20161225.0304)
 -->
<!-- Title: dependencies Pages: 1 -->
<svg width="504pt" height="284pt"
 viewBox="0.00 0.00 504.00 284.00" xmlns="http://www.w3.org/2000/svg" xmlns:xlink="http://www.w3.org/1999/xlink">
<g id="graph0" class="graph" transform="scale(1 1) rotate(0) translate(4 280)">
<title>dependencies</title>
<polygon fill="#ffffff" stroke="transparent" points="-4,4 -4,-280 500,-280 500,4 -4,4"/>
<text text-anchor="start" x="227.0091" y="-42.4" font-family="sans-serif" font-weight="bold" font-size="14.00" fill="#000000">Legend</text>
<polygon fill="#ffffb3" stroke="transparent" points="14,-10 14,-30 34,-30 34,-10 14,-10"/>
<text text-anchor="start" x="37.629" y="-15.4" font-family="sans-serif" font-size="14.00" fill="#000000"> &#160;Declarations</text>
<polygon fill="#8dd3c7" stroke="transparent" points="127,-10 127,-30 147,-30 147,-10 127,-10"/>
<text text-anchor="start" x="150.7251" y="-15.4" font-family="sans-serif" font-size="14.00" fill="#000000"> &#160;Module</text>
<polygon fill="#80b1d3" stroke="transparent" points="213,-10 213,-30 233,-30 233,-10 213,-10"/>
<text text-anchor="start" x="236.7812" y="-15.4" font-family="sans-serif" font-size="14.00" fill="#000000"> &#160;Bootstrap</text>
<polygon fill="#fdb462" stroke="transparent" points="310,-10 310,-30 330,-30 330,-10 310,-10"/>
<text text-anchor="start" x="333.6732" y="-15.4" font-family="sans-serif" font-size="14.00" fill="#000000"> &#160;Providers</text>
<polygon fill="#fb8072" stroke="transparent" points="406,-10 406,-30 426,-30 426,-10 406,-10"/>
<text text-anchor="start" x="429.7258" y="-15.4" font-family="sans-serif" font-size="14.00" fill="#000000"> &#160;Exports</text>
<g id="clust1" class="cluster">
<title>cluster_AutoCompleteModule</title>
<polygon fill="none" stroke="#000000" stroke-dasharray="1,5" points="99,-70 99,-268 397,-268 397,-70 99,-70"/>
</g>
<g id="clust2" class="cluster">
<title>cluster_AutoCompleteModule_declarations</title>
<polygon fill="none" stroke="#000000" points="110,-78 110,-130 386,-130 386,-78 110,-78"/>
</g>
<g id="clust6" class="cluster">
<title>cluster_AutoCompleteModule_exports</title>
<polygon fill="none" stroke="#000000" points="107,-208 107,-260 389,-260 389,-208 107,-208"/>
</g>
<!-- AutoCompleteComponent -->
<g id="node1" class="node">
<title>AutoCompleteComponent</title>
<polygon fill="#ffffb3" stroke="#000000" points="377.7674,-122 214.2326,-122 214.2326,-86 377.7674,-86 377.7674,-122"/>
<text text-anchor="middle" x="296" y="-99.8" font-family="Times,serif" font-size="14.00" fill="#000000">AutoCompleteComponent</text>
</g>
<!-- AutoCompleteModule -->
<g id="node3" class="node">
<title>AutoCompleteModule</title>
<polygon fill="#8dd3c7" stroke="#000000" points="305.9846,-187 302.9846,-191 281.9846,-191 278.9846,-187 164.0154,-187 164.0154,-151 305.9846,-151 305.9846,-187"/>
<text text-anchor="middle" x="235" y="-164.8" font-family="Times,serif" font-size="14.00" fill="#000000">AutoCompleteModule</text>
</g>
<!-- AutoCompleteComponent&#45;&gt;AutoCompleteModule -->
<g id="edge1" class="edge">
<title>AutoCompleteComponent&#45;&gt;AutoCompleteModule</title>
<path fill="none" stroke="#000000" d="M260.0544,-122.1061C260.0544,-122.1061 260.0544,-140.991 260.0544,-140.991"/>
<polygon fill="#000000" stroke="#000000" points="256.5544,-140.9909 260.0544,-150.991 263.5544,-140.991 256.5544,-140.9909"/>
</g>
<!-- BoldPrefix -->
<g id="node2" class="node">
<title>BoldPrefix</title>
<polygon fill="#ffffb3" stroke="#000000" points="195.9374,-122 118.0626,-122 118.0626,-86 195.9374,-86 195.9374,-122"/>
<text text-anchor="middle" x="157" y="-99.8" font-family="Times,serif" font-size="14.00" fill="#000000">BoldPrefix</text>
</g>
<!-- BoldPrefix&#45;&gt;AutoCompleteModule -->
<g id="edge2" class="edge">
<title>BoldPrefix&#45;&gt;AutoCompleteModule</title>
<path fill="none" stroke="#000000" d="M179.8629,-122.1061C179.8629,-122.1061 179.8629,-140.991 179.8629,-140.991"/>
<polygon fill="#000000" stroke="#000000" points="176.363,-140.9909 179.8629,-150.991 183.363,-140.991 176.363,-140.9909"/>
</g>
<!-- AutoCompleteComponent  -->
<g id="node4" class="node">
<title>AutoCompleteComponent </title>
<polygon fill="#fb8072" stroke="#000000" points="380.7674,-252 213.2326,-252 213.2326,-216 380.7674,-216 380.7674,-252"/>
<text text-anchor="middle" x="297" y="-229.8" font-family="Times,serif" font-size="14.00" fill="#000000">AutoCompleteComponent </text>
</g>
<!-- AutoCompleteModule&#45;&gt;AutoCompleteComponent  -->
<g id="edge3" class="edge">
<title>AutoCompleteModule&#45;&gt;AutoCompleteComponent </title>
<path fill="none" stroke="#000000" stroke-dasharray="5,2" d="M259.6794,-187.1061C259.6794,-187.1061 259.6794,-205.991 259.6794,-205.991"/>
<polygon fill="#000000" stroke="#000000" points="256.1794,-205.9909 259.6794,-215.991 263.1794,-205.991 256.1794,-205.9909"/>
</g>
<!-- BoldPrefix  -->
<g id="node5" class="node">
<title>BoldPrefix </title>
<polygon fill="#fb8072" stroke="#000000" points="195.4362,-252 114.5638,-252 114.5638,-216 195.4362,-216 195.4362,-252"/>
<text text-anchor="middle" x="155" y="-229.8" font-family="Times,serif" font-size="14.00" fill="#000000">BoldPrefix </text>
</g>
<!-- AutoCompleteModule&#45;&gt;BoldPrefix  -->
<g id="edge4" class="edge">
<title>AutoCompleteModule&#45;&gt;BoldPrefix </title>
<path fill="none" stroke="#000000" stroke-dasharray="5,2" d="M179.7379,-187.1061C179.7379,-187.1061 179.7379,-205.991 179.7379,-205.991"/>
<polygon fill="#000000" stroke="#000000" points="176.238,-205.9909 179.7379,-215.991 183.238,-205.991 176.238,-205.9909"/>
</g>
</g>
</svg>
