<?xml version="1.0" encoding="UTF-8" standalone="no"?>
<!DOCTYPE svg PUBLIC "-//W3C//DTD SVG 1.1//EN"
 "http://www.w3.org/Graphics/SVG/1.1/DTD/svg11.dtd">
<!-- Generated by graphviz version 2.40.1 (20161225.0304)
 -->
<!-- Title: dependencies Pages: 1 -->
<svg width="625pt" height="211pt"
 viewBox="0.00 0.00 625.00 211.00" xmlns="http://www.w3.org/2000/svg" xmlns:xlink="http://www.w3.org/1999/xlink">
<g id="graph0" class="graph" transform="scale(1 1) rotate(0) translate(4 207)">
<title>dependencies</title>
<polygon fill="#ffffff" stroke="transparent" points="-4,4 -4,-207 621,-207 621,4 -4,4"/>
<text text-anchor="start" x="287.5091" y="-42.4" font-family="sans-serif" font-weight="bold" font-size="14.00" fill="#000000">Legend</text>
<polygon fill="#ffffb3" stroke="transparent" points="74.5,-10 74.5,-30 94.5,-30 94.5,-10 74.5,-10"/>
<text text-anchor="start" x="98.129" y="-15.4" font-family="sans-serif" font-size="14.00" fill="#000000"> &#160;Declarations</text>
<polygon fill="#8dd3c7" stroke="transparent" points="187.5,-10 187.5,-30 207.5,-30 207.5,-10 187.5,-10"/>
<text text-anchor="start" x="211.2251" y="-15.4" font-family="sans-serif" font-size="14.00" fill="#000000"> &#160;Module</text>
<polygon fill="#80b1d3" stroke="transparent" points="273.5,-10 273.5,-30 293.5,-30 293.5,-10 273.5,-10"/>
<text text-anchor="start" x="297.2812" y="-15.4" font-family="sans-serif" font-size="14.00" fill="#000000"> &#160;Bootstrap</text>
<polygon fill="#fdb462" stroke="transparent" points="370.5,-10 370.5,-30 390.5,-30 390.5,-10 370.5,-10"/>
<text text-anchor="start" x="394.1732" y="-15.4" font-family="sans-serif" font-size="14.00" fill="#000000"> &#160;Providers</text>
<polygon fill="#fb8072" stroke="transparent" points="466.5,-10 466.5,-30 486.5,-30 486.5,-10 466.5,-10"/>
<text text-anchor="start" x="490.2258" y="-15.4" font-family="sans-serif" font-size="14.00" fill="#000000"> &#160;Exports</text>
<g id="clust1" class="cluster">
<title>cluster_HomePageModule</title>
<polygon fill="none" stroke="#000000" stroke-dasharray="1,5" points="8,-70 8,-195 609,-195 609,-70 8,-70"/>
</g>
<g id="clust2" class="cluster">
<title>cluster_HomePageModule_declarations</title>
<polygon fill="none" stroke="#000000" points="507,-78 507,-130 601,-130 601,-78 507,-78"/>
</g>
<g id="clust4" class="cluster">
<title>cluster_HomePageModule_imports</title>
<polygon fill="none" stroke="#000000" points="16,-78 16,-130 499,-130 499,-78 16,-78"/>
</g>
<!-- HomePage -->
<g id="node1" class="node">
<title>HomePage</title>
<polygon fill="#ffffb3" stroke="#000000" points="592.9248,-122 515.0752,-122 515.0752,-86 592.9248,-86 592.9248,-122"/>
<text text-anchor="middle" x="554" y="-99.8" font-family="Times,serif" font-size="14.00" fill="#000000">HomePage</text>
</g>
<!-- HomePageModule -->
<g id="node2" class="node">
<title>HomePageModule</title>
<polygon fill="#8dd3c7" stroke="#000000" points="399.4734,-187 396.4734,-191 375.4734,-191 372.4734,-187 278.5266,-187 278.5266,-151 399.4734,-151 399.4734,-187"/>
<text text-anchor="middle" x="339" y="-164.8" font-family="Times,serif" font-size="14.00" fill="#000000">HomePageModule</text>
</g>
<!-- HomePage&#45;&gt;HomePageModule -->
<g id="edge1" class="edge">
<title>HomePage&#45;&gt;HomePageModule</title>
<path fill="none" stroke="#000000" d="M554,-122.1061C554,-141.3391 554,-169 554,-169 554,-169 409.7483,-169 409.7483,-169"/>
<polygon fill="#000000" stroke="#000000" points="409.7483,-165.5001 399.7483,-169 409.7482,-172.5001 409.7483,-165.5001"/>
</g>
<!-- MultiFunctionModule -->
<g id="node3" class="node">
<title>MultiFunctionModule</title>
<polygon fill="#8dd3c7" stroke="#000000" points="491.4453,-122 488.4453,-126 467.4453,-126 464.4453,-122 350.5547,-122 350.5547,-86 491.4453,-86 491.4453,-122"/>
<text text-anchor="middle" x="421" y="-99.8" font-family="Times,serif" font-size="14.00" fill="#000000">MultiFunctionModule</text>
</g>
<!-- MultiFunctionModule&#45;&gt;HomePageModule -->
<g id="edge2" class="edge">
<title>MultiFunctionModule&#45;&gt;HomePageModule</title>
<path fill="none" stroke="#000000" d="M375.1322,-122.1061C375.1322,-122.1061 375.1322,-140.991 375.1322,-140.991"/>
<polygon fill="#000000" stroke="#000000" points="371.6323,-140.9909 375.1322,-150.991 378.6323,-140.991 371.6323,-140.9909"/>
</g>
<!-- SimpleFunctionModule -->
<g id="node4" class="node">
<title>SimpleFunctionModule</title>
<polygon fill="#8dd3c7" stroke="#000000" points="332.4972,-122 329.4972,-126 308.4972,-126 305.4972,-122 183.5028,-122 183.5028,-86 332.4972,-86 332.4972,-122"/>
<text text-anchor="middle" x="258" y="-99.8" font-family="Times,serif" font-size="14.00" fill="#000000">SimpleFunctionModule</text>
</g>
<!-- SimpleFunctionModule&#45;&gt;HomePageModule -->
<g id="edge3" class="edge">
<title>SimpleFunctionModule&#45;&gt;HomePageModule</title>
<path fill="none" stroke="#000000" d="M305.506,-122.1061C305.506,-122.1061 305.506,-140.991 305.506,-140.991"/>
<polygon fill="#000000" stroke="#000000" points="302.006,-140.9909 305.506,-150.991 309.006,-140.991 302.006,-140.9909"/>
</g>
<!-- SimpleServiceModule -->
<g id="node5" class="node">
<title>SimpleServiceModule</title>
<polygon fill="#8dd3c7" stroke="#000000" points="165.6965,-122 162.6965,-126 141.6965,-126 138.6965,-122 24.3035,-122 24.3035,-86 165.6965,-86 165.6965,-122"/>
<text text-anchor="middle" x="95" y="-99.8" font-family="Times,serif" font-size="14.00" fill="#000000">SimpleServiceModule</text>
</g>
<!-- SimpleServiceModule&#45;&gt;HomePageModule -->
<g id="edge4" class="edge">
<title>SimpleServiceModule&#45;&gt;HomePageModule</title>
<path fill="none" stroke="#000000" d="M95,-122.1061C95,-141.3391 95,-169 95,-169 95,-169 268.3719,-169 268.3719,-169"/>
<polygon fill="#000000" stroke="#000000" points="268.3719,-172.5001 278.3719,-169 268.3719,-165.5001 268.3719,-172.5001"/>
</g>
</g>
</svg>
