<?xml version="1.0" encoding="UTF-8" standalone="no"?>
<!DOCTYPE svg PUBLIC "-//W3C//DTD SVG 1.1//EN"
 "http://www.w3.org/Graphics/SVG/1.1/DTD/svg11.dtd">
<!-- Generated by graphviz version 2.40.1 (20161225.0304)
 -->
<!-- Title: dependencies Pages: 1 -->
<svg width="799pt" height="211pt"
 viewBox="0.00 0.00 799.00 211.00" xmlns="http://www.w3.org/2000/svg" xmlns:xlink="http://www.w3.org/1999/xlink">
<g id="graph0" class="graph" transform="scale(1 1) rotate(0) translate(4 207)">
<title>dependencies</title>
<polygon fill="#ffffff" stroke="transparent" points="-4,4 -4,-207 795,-207 795,4 -4,4"/>
<text text-anchor="start" x="374.5091" y="-42.4" font-family="sans-serif" font-weight="bold" font-size="14.00" fill="#000000">Legend</text>
<polygon fill="#ffffb3" stroke="transparent" points="161.5,-10 161.5,-30 181.5,-30 181.5,-10 161.5,-10"/>
<text text-anchor="start" x="185.129" y="-15.4" font-family="sans-serif" font-size="14.00" fill="#000000"> &#160;Declarations</text>
<polygon fill="#8dd3c7" stroke="transparent" points="274.5,-10 274.5,-30 294.5,-30 294.5,-10 274.5,-10"/>
<text text-anchor="start" x="298.2251" y="-15.4" font-family="sans-serif" font-size="14.00" fill="#000000"> &#160;Module</text>
<polygon fill="#80b1d3" stroke="transparent" points="360.5,-10 360.5,-30 380.5,-30 380.5,-10 360.5,-10"/>
<text text-anchor="start" x="384.2812" y="-15.4" font-family="sans-serif" font-size="14.00" fill="#000000"> &#160;Bootstrap</text>
<polygon fill="#fdb462" stroke="transparent" points="457.5,-10 457.5,-30 477.5,-30 477.5,-10 457.5,-10"/>
<text text-anchor="start" x="481.1732" y="-15.4" font-family="sans-serif" font-size="14.00" fill="#000000"> &#160;Providers</text>
<polygon fill="#fb8072" stroke="transparent" points="553.5,-10 553.5,-30 573.5,-30 573.5,-10 553.5,-10"/>
<text text-anchor="start" x="577.2258" y="-15.4" font-family="sans-serif" font-size="14.00" fill="#000000"> &#160;Exports</text>
<g id="clust1" class="cluster">
<title>cluster_HomePageModule</title>
<polygon fill="none" stroke="#000000" stroke-dasharray="1,5" points="8,-70 8,-195 783,-195 783,-70 8,-70"/>
</g>
<g id="clust2" class="cluster">
<title>cluster_HomePageModule_declarations</title>
<polygon fill="none" stroke="#000000" points="681,-78 681,-130 775,-130 775,-78 681,-78"/>
</g>
<g id="clust4" class="cluster">
<title>cluster_HomePageModule_imports</title>
<polygon fill="none" stroke="#000000" points="16,-78 16,-130 673,-130 673,-78 16,-78"/>
</g>
<!-- HomePage -->
<g id="node1" class="node">
<title>HomePage</title>
<polygon fill="#ffffb3" stroke="#000000" points="766.9248,-122 689.0752,-122 689.0752,-86 766.9248,-86 766.9248,-122"/>
<text text-anchor="middle" x="728" y="-99.8" font-family="Times,serif" font-size="14.00" fill="#000000">HomePage</text>
</g>
<!-- HomePageModule -->
<g id="node2" class="node">
<title>HomePageModule</title>
<polygon fill="#8dd3c7" stroke="#000000" points="481.4734,-187 478.4734,-191 457.4734,-191 454.4734,-187 360.5266,-187 360.5266,-151 481.4734,-151 481.4734,-187"/>
<text text-anchor="middle" x="421" y="-164.8" font-family="Times,serif" font-size="14.00" fill="#000000">HomePageModule</text>
</g>
<!-- HomePage&#45;&gt;HomePageModule -->
<g id="edge1" class="edge">
<title>HomePage&#45;&gt;HomePageModule</title>
<path fill="none" stroke="#000000" d="M728,-122.2843C728,-143.3211 728,-175 728,-175 728,-175 491.6533,-175 491.6533,-175"/>
<polygon fill="#000000" stroke="#000000" points="491.6534,-171.5001 481.6533,-175 491.6533,-178.5001 491.6534,-171.5001"/>
</g>
<!-- CustomTemplateModule -->
<g id="node3" class="node">
<title>CustomTemplateModule</title>
<polygon fill="#8dd3c7" stroke="#000000" points="664.9804,-122 661.9804,-126 640.9804,-126 637.9804,-122 509.0196,-122 509.0196,-86 664.9804,-86 664.9804,-122"/>
<text text-anchor="middle" x="587" y="-99.8" font-family="Times,serif" font-size="14.00" fill="#000000">CustomTemplateModule</text>
</g>
<!-- CustomTemplateModule&#45;&gt;HomePageModule -->
<g id="edge2" class="edge">
<title>CustomTemplateModule&#45;&gt;HomePageModule</title>
<path fill="none" stroke="#000000" d="M587,-122.0225C587,-139.3734 587,-163 587,-163 587,-163 491.8697,-163 491.8697,-163"/>
<polygon fill="#000000" stroke="#000000" points="491.8697,-159.5001 481.8697,-163 491.8696,-166.5001 491.8697,-159.5001"/>
</g>
<!-- MultiFunctionModule -->
<g id="node4" class="node">
<title>MultiFunctionModule</title>
<polygon fill="#8dd3c7" stroke="#000000" points="491.4453,-122 488.4453,-126 467.4453,-126 464.4453,-122 350.5547,-122 350.5547,-86 491.4453,-86 491.4453,-122"/>
<text text-anchor="middle" x="421" y="-99.8" font-family="Times,serif" font-size="14.00" fill="#000000">MultiFunctionModule</text>
</g>
<!-- MultiFunctionModule&#45;&gt;HomePageModule -->
<g id="edge3" class="edge">
<title>MultiFunctionModule&#45;&gt;HomePageModule</title>
<path fill="none" stroke="#000000" d="M421,-122.1061C421,-122.1061 421,-140.991 421,-140.991"/>
<polygon fill="#000000" stroke="#000000" points="417.5001,-140.9909 421,-150.991 424.5001,-140.991 417.5001,-140.9909"/>
</g>
<!-- SimpleFunctionModule -->
<g id="node5" class="node">
<title>SimpleFunctionModule</title>
<polygon fill="#8dd3c7" stroke="#000000" points="332.4972,-122 329.4972,-126 308.4972,-126 305.4972,-122 183.5028,-122 183.5028,-86 332.4972,-86 332.4972,-122"/>
<text text-anchor="middle" x="258" y="-99.8" font-family="Times,serif" font-size="14.00" fill="#000000">SimpleFunctionModule</text>
</g>
<!-- SimpleFunctionModule&#45;&gt;HomePageModule -->
<g id="edge4" class="edge">
<title>SimpleFunctionModule&#45;&gt;HomePageModule</title>
<path fill="none" stroke="#000000" d="M258,-122.0225C258,-139.3734 258,-163 258,-163 258,-163 350.3048,-163 350.3048,-163"/>
<polygon fill="#000000" stroke="#000000" points="350.3049,-166.5001 360.3048,-163 350.3048,-159.5001 350.3049,-166.5001"/>
</g>
<!-- SimpleServiceModule -->
<g id="node6" class="node">
<title>SimpleServiceModule</title>
<polygon fill="#8dd3c7" stroke="#000000" points="165.6965,-122 162.6965,-126 141.6965,-126 138.6965,-122 24.3035,-122 24.3035,-86 165.6965,-86 165.6965,-122"/>
<text text-anchor="middle" x="95" y="-99.8" font-family="Times,serif" font-size="14.00" fill="#000000">SimpleServiceModule</text>
</g>
<!-- SimpleServiceModule&#45;&gt;HomePageModule -->
<g id="edge5" class="edge">
<title>SimpleServiceModule&#45;&gt;HomePageModule</title>
<path fill="none" stroke="#000000" d="M95,-122.2843C95,-143.3211 95,-175 95,-175 95,-175 350.4459,-175 350.4459,-175"/>
<polygon fill="#000000" stroke="#000000" points="350.4459,-178.5001 360.4459,-175 350.4459,-171.5001 350.4459,-178.5001"/>
</g>
</g>
</svg>
