<?xml version="1.0" encoding="UTF-8" standalone="no"?>
<!DOCTYPE svg PUBLIC "-//W3C//DTD SVG 1.1//EN"
 "http://www.w3.org/Graphics/SVG/1.1/DTD/svg11.dtd">
<!-- Generated by graphviz version 2.40.1 (20161225.0304)
 -->
<!-- Title: dependencies Pages: 1 -->
<svg width="570pt" height="284pt"
 viewBox="0.00 0.00 570.00 284.00" xmlns="http://www.w3.org/2000/svg" xmlns:xlink="http://www.w3.org/1999/xlink">
<g id="graph0" class="graph" transform="scale(1 1) rotate(0) translate(4 280)">
<title>dependencies</title>
<polygon fill="#ffffff" stroke="transparent" points="-4,4 -4,-280 566,-280 566,4 -4,4"/>
<text text-anchor="start" x="260.0091" y="-42.4" font-family="sans-serif" font-weight="bold" font-size="14.00" fill="#000000">Legend</text>
<polygon fill="#ffffb3" stroke="transparent" points="47,-10 47,-30 67,-30 67,-10 47,-10"/>
<text text-anchor="start" x="70.629" y="-15.4" font-family="sans-serif" font-size="14.00" fill="#000000"> &#160;Declarations</text>
<polygon fill="#8dd3c7" stroke="transparent" points="160,-10 160,-30 180,-30 180,-10 160,-10"/>
<text text-anchor="start" x="183.7251" y="-15.4" font-family="sans-serif" font-size="14.00" fill="#000000"> &#160;Module</text>
<polygon fill="#80b1d3" stroke="transparent" points="246,-10 246,-30 266,-30 266,-10 246,-10"/>
<text text-anchor="start" x="269.7812" y="-15.4" font-family="sans-serif" font-size="14.00" fill="#000000"> &#160;Bootstrap</text>
<polygon fill="#fdb462" stroke="transparent" points="343,-10 343,-30 363,-30 363,-10 343,-10"/>
<text text-anchor="start" x="366.6732" y="-15.4" font-family="sans-serif" font-size="14.00" fill="#000000"> &#160;Providers</text>
<polygon fill="#fb8072" stroke="transparent" points="439,-10 439,-30 459,-30 459,-10 439,-10"/>
<text text-anchor="start" x="462.7258" y="-15.4" font-family="sans-serif" font-size="14.00" fill="#000000"> &#160;Exports</text>
<g id="clust1" class="cluster">
<title>cluster_CustomTemplateModule</title>
<polygon fill="none" stroke="#000000" stroke-dasharray="1,5" points="8,-70 8,-268 554,-268 554,-70 8,-70"/>
</g>
<g id="clust2" class="cluster">
<title>cluster_CustomTemplateModule_declarations</title>
<polygon fill="none" stroke="#000000" points="352,-78 352,-130 546,-130 546,-78 352,-78"/>
</g>
<g id="clust4" class="cluster">
<title>cluster_CustomTemplateModule_imports</title>
<polygon fill="none" stroke="#000000" points="186,-78 186,-130 344,-130 344,-78 186,-78"/>
</g>
<g id="clust5" class="cluster">
<title>cluster_CustomTemplateModule_exports</title>
<polygon fill="none" stroke="#000000" points="166,-208 166,-260 364,-260 364,-208 166,-208"/>
</g>
<g id="clust7" class="cluster">
<title>cluster_CustomTemplateModule_providers</title>
<polygon fill="none" stroke="#000000" points="16,-78 16,-130 178,-130 178,-78 16,-78"/>
</g>
<!-- CustomTemplateComponent -->
<g id="node1" class="node">
<title>CustomTemplateComponent</title>
<polygon fill="#ffffb3" stroke="#000000" points="537.7632,-122 360.2368,-122 360.2368,-86 537.7632,-86 537.7632,-122"/>
<text text-anchor="middle" x="449" y="-99.8" font-family="Times,serif" font-size="14.00" fill="#000000">CustomTemplateComponent</text>
</g>
<!-- CustomTemplateModule -->
<g id="node2" class="node">
<title>CustomTemplateModule</title>
<polygon fill="#8dd3c7" stroke="#000000" points="342.9804,-187 339.9804,-191 318.9804,-191 315.9804,-187 187.0196,-187 187.0196,-151 342.9804,-151 342.9804,-187"/>
<text text-anchor="middle" x="265" y="-164.8" font-family="Times,serif" font-size="14.00" fill="#000000">CustomTemplateModule</text>
</g>
<!-- CustomTemplateComponent&#45;&gt;CustomTemplateModule -->
<g id="edge1" class="edge">
<title>CustomTemplateComponent&#45;&gt;CustomTemplateModule</title>
<path fill="none" stroke="#000000" d="M449,-122.1061C449,-141.3391 449,-169 449,-169 449,-169 353.0326,-169 353.0326,-169"/>
<polygon fill="#000000" stroke="#000000" points="353.0326,-165.5001 343.0326,-169 353.0325,-172.5001 353.0326,-165.5001"/>
</g>
<!-- CustomTemplateComponent  -->
<g id="node4" class="node">
<title>CustomTemplateComponent </title>
<polygon fill="#fb8072" stroke="#000000" points="355.7632,-252 174.2368,-252 174.2368,-216 355.7632,-216 355.7632,-252"/>
<text text-anchor="middle" x="265" y="-229.8" font-family="Times,serif" font-size="14.00" fill="#000000">CustomTemplateComponent </text>
</g>
<!-- CustomTemplateModule&#45;&gt;CustomTemplateComponent  -->
<g id="edge3" class="edge">
<title>CustomTemplateModule&#45;&gt;CustomTemplateComponent </title>
<path fill="none" stroke="#000000" stroke-dasharray="5,2" d="M265,-187.1061C265,-187.1061 265,-205.991 265,-205.991"/>
<polygon fill="#000000" stroke="#000000" points="261.5001,-205.9909 265,-215.991 268.5001,-205.991 261.5001,-205.9909"/>
</g>
<!-- AutoCompleteModule -->
<g id="node3" class="node">
<title>AutoCompleteModule</title>
<polygon fill="#8dd3c7" stroke="#000000" points="335.9846,-122 332.9846,-126 311.9846,-126 308.9846,-122 194.0154,-122 194.0154,-86 335.9846,-86 335.9846,-122"/>
<text text-anchor="middle" x="265" y="-99.8" font-family="Times,serif" font-size="14.00" fill="#000000">AutoCompleteModule</text>
</g>
<!-- AutoCompleteModule&#45;&gt;CustomTemplateModule -->
<g id="edge2" class="edge">
<title>AutoCompleteModule&#45;&gt;CustomTemplateModule</title>
<path fill="none" stroke="#000000" d="M265,-122.1061C265,-122.1061 265,-140.991 265,-140.991"/>
<polygon fill="#000000" stroke="#000000" points="261.5001,-140.9909 265,-150.991 268.5001,-140.991 261.5001,-140.9909"/>
</g>
<!-- SimpleFunction -->
<g id="node5" class="node">
<title>SimpleFunction</title>
<ellipse fill="#fdb462" stroke="#000000" cx="97" cy="-104" rx="72.9722" ry="18"/>
<text text-anchor="middle" x="97" y="-99.8" font-family="Times,serif" font-size="14.00" fill="#000000">SimpleFunction</text>
</g>
<!-- SimpleFunction&#45;&gt;CustomTemplateModule -->
<g id="edge4" class="edge">
<title>SimpleFunction&#45;&gt;CustomTemplateModule</title>
<path fill="none" stroke="#000000" d="M97,-122.1061C97,-141.3391 97,-169 97,-169 97,-169 176.9019,-169 176.9019,-169"/>
<polygon fill="#000000" stroke="#000000" points="176.902,-172.5001 186.9019,-169 176.9019,-165.5001 176.902,-172.5001"/>
</g>
</g>
</svg>
